<?xml version="1.0" encoding="UTF-8" standalone="no"?>
<!-- Generator: Adobe Illustrator 20.1.0, SVG Export Plug-In . SVG Version: 6.00 Build 0)  -->

<svg
   xmlns:dc="http://purl.org/dc/elements/1.1/"
   xmlns:cc="http://creativecommons.org/ns#"
   xmlns:rdf="http://www.w3.org/1999/02/22-rdf-syntax-ns#"
   xmlns:svg="http://www.w3.org/2000/svg"
   xmlns="http://www.w3.org/2000/svg"
   xmlns:sodipodi="http://sodipodi.sourceforge.net/DTD/sodipodi-0.dtd"
   xmlns:inkscape="http://www.inkscape.org/namespaces/inkscape"
   version="1.1"
   id="Capa_1"
   x="0px"
   y="0px"
   width="448px"
   height="432px"
   viewBox="0 0 448 432"
   style="enable-background:new 0 0 448 432;"
   xml:space="preserve"
   sodipodi:docname="person-icon.svg"
   inkscape:version="0.92.2 (5c3e80d, 2017-08-06)"><metadata
     id="metadata13"><rdf:RDF><cc:Work
         rdf:about=""><dc:format>image/svg+xml</dc:format><dc:type
           rdf:resource="http://purl.org/dc/dcmitype/StillImage" /><dc:title></dc:title></cc:Work></rdf:RDF></metadata><defs
     id="defs11" /><sodipodi:namedview
     pagecolor="#ffffff"
     bordercolor="#666666"
     borderopacity="1"
     objecttolerance="10"
     gridtolerance="10"
     guidetolerance="10"
     inkscape:pageopacity="0"
     inkscape:pageshadow="2"
     inkscape:window-width="751"
     inkscape:window-height="480"
     id="namedview9"
     showgrid="false"
     inkscape:zoom="0.5462963"
     inkscape:cx="224"
     inkscape:cy="216"
     inkscape:window-x="0"
     inkscape:window-y="0"
     inkscape:window-maximized="0"
     inkscape:current-layer="Capa_1" /><style
     type="text/css"
     id="style2">
	.st0{fill:#F5B812;}
</style><g
     id="g6"
     style="fill:#a8a8a8;fill-opacity:1"><path
       class="st0"
       d="m 279.4,303.4 c -11.1,-1.8 -11.3,-32.2 -11.3,-32.2 0,0 32.5,-32.2 39.6,-75.4 19,0 30.8,-46 11.8,-62.1 C 320.2,116.6 343.9,0 224,0 104.1,0 127.8,116.6 128.6,133.7 c -19,16.2 -7.3,62.1 11.8,62.1 7.1,43.2 39.6,75.4 39.6,75.4 0,0 -0.3,30.4 -11.3,32.2 C 133,309 0,367.7 0,432 H 224 448 C 448,367.7 315,309 279.4,303.4 Z"
       id="path4"
       inkscape:connector-curvature="0"
       style="fill:#a8a8a8;fill-opacity:1" /></g></svg>