<?xml version="1.0" encoding="UTF-8"?>
<!-- Generator: Adobe Illustrator 20.1.0, SVG Export Plug-In . SVG Version: 6.00 Build 0)  -->
<svg version="1.1" id="Capa_1" xmlns="http://www.w3.org/2000/svg" xmlns:xlink="http://www.w3.org/1999/xlink" x="0px" y="0px" width="448px" height="432px" viewBox="0 0 448 432" style="enable-background:new 0 0 448 432;" xml:space="preserve">
<style type="text/css">
	.st0{fill:#F5B812;}
</style>
<g>
	<path class="st0" d="M279.4,303.4c-11.1-1.8-11.3-32.2-11.3-32.2s32.5-32.2,39.6-75.4c19,0,30.8-46,11.8-62.1   C320.2,116.6,343.9,0,224,0s-96.2,116.6-95.4,133.7c-19,16.2-7.3,62.1,11.8,62.1c7.1,43.2,39.6,75.4,39.6,75.4s-0.3,30.4-11.3,32.2   C133,309,0,367.7,0,432h224h224C448,367.7,315,309,279.4,303.4z"/>
</g>
</svg>