<?xml version="1.0" encoding="UTF-8" standalone="no"?>
<!-- Generator: Adobe Illustrator 20.1.0, SVG Export Plug-In . SVG Version: 6.00 Build 0)  -->

<svg
   xmlns:dc="http://purl.org/dc/elements/1.1/"
   xmlns:cc="http://creativecommons.org/ns#"
   xmlns:rdf="http://www.w3.org/1999/02/22-rdf-syntax-ns#"
   xmlns:svg="http://www.w3.org/2000/svg"
   xmlns="http://www.w3.org/2000/svg"
   xmlns:sodipodi="http://sodipodi.sourceforge.net/DTD/sodipodi-0.dtd"
   xmlns:inkscape="http://www.inkscape.org/namespaces/inkscape"
   version="1.1"
   id="Capa_1"
   x="0px"
   y="0px"
   width="512px"
   height="512px"
   viewBox="0 0 512 512"
   style="enable-background:new 0 0 512 512;"
   xml:space="preserve"
   sodipodi:docname="phone-icon.svg"
   inkscape:version="0.92.2 (5c3e80d, 2017-08-06)"><metadata
     id="metadata21"><rdf:RDF><cc:Work
         rdf:about=""><dc:format>image/svg+xml</dc:format><dc:type
           rdf:resource="http://purl.org/dc/dcmitype/StillImage" /></cc:Work></rdf:RDF></metadata><defs
     id="defs19" /><sodipodi:namedview
     pagecolor="#ffffff"
     bordercolor="#666666"
     borderopacity="1"
     objecttolerance="10"
     gridtolerance="10"
     guidetolerance="10"
     inkscape:pageopacity="0"
     inkscape:pageshadow="2"
     inkscape:window-width="751"
     inkscape:window-height="480"
     id="namedview17"
     showgrid="false"
     inkscape:zoom="0.4609375"
     inkscape:cx="228.88136"
     inkscape:cy="247.32203"
     inkscape:window-x="298"
     inkscape:window-y="225"
     inkscape:window-maximized="0"
     inkscape:current-layer="Capa_1" /><style
     type="text/css"
     id="style2">
	.st0{fill:#F5B812;}
	.st1{display:none;fill:#F5B812;}
</style><g
     id="g14"
     style="fill:#a8a8a8;fill-opacity:1"><g
       id="g12"
       style="fill:#a8a8a8;fill-opacity:1"><path
         class="st0"
         d="M 498.8,377.6 435.2,314 c -17.5,-17.5 -46.1,-17.5 -63.6,0 l -28.9,28.9 c -13.3,13.3 -34.9,13.3 -48.2,0 L 169,217.4 c -13.3,-13.3 -13.3,-34.9 0,-48.2 4.7,-4.7 18,-18 28.9,-28.9 17.5,-17.5 17.7,-45.9 0,-63.7 L 134.3,13.2 c -17.5,-17.5 -46.1,-17.5 -63.6,0 -13.1,13 -17.3,17.2 -23.2,23 -63.3,63.3 -63.3,166.2 0,229.5 l 198.7,198.8 c 63.4,63.4 166.1,63.4 229.5,0 l 23.1,-23.1 c 17.6,-17.7 17.6,-46.2 0,-63.8 z"
         id="path4"
         inkscape:connector-curvature="0"
         style="fill:#a8a8a8;fill-opacity:1" /><path
         class="st1"
         d="m 91.8,34.4 c 5.8,-5.8 15.4,-5.8 21.2,0 l 63.6,63.4 c 5.9,5.9 5.9,15.4 0,21.2 L 166,129.6 81.3,44.8 Z"
         id="path6"
         inkscape:connector-curvature="0"
         style="display:none;fill:#a8a8a8;fill-opacity:1" /><path
         class="st1"
         d="M 267.4,443.2 68.7,244.4 c -49,-49 -51.6,-125.8 -8.3,-178 L 145,151 c -22.2,25.2 -21.3,63.6 2.8,87.7 l 125.4,125.5 v 0 c 24.1,24.1 62.4,25 87.7,2.8 l 84.6,84.6 c -52.1,43.2 -128.8,40.9 -178.1,-8.4 z"
         id="path8"
         inkscape:connector-curvature="0"
         style="display:none;fill:#a8a8a8;fill-opacity:1" /><path
         class="st1"
         d="m 477.6,420.1 -10.6,10.6 -84.9,-84.9 10.6,-10.6 c 5.9,-5.8 15.4,-5.9 21.2,0 l 63.6,63.6 c 6,5.9 6,15.4 0.1,21.3 z"
         id="path10"
         inkscape:connector-curvature="0"
         style="display:none;fill:#a8a8a8;fill-opacity:1" /></g></g></svg>